<svg xmlns="http://www.w3.org/2000/svg" xmlns:xlink="http://www.w3.org/1999/xlink" width="42.282" height="42.282" viewBox="0 0 42.282 42.282"><defs><style>.a{fill:#b7c1c6;}.b{fill:#ffb92d;}.c{fill:#f59500;}.d{fill:#93a3af;}.e{fill:url(#a);}.f{fill:#61db99;}.g{fill:#e1e1e1;}.h{fill:#627687;}.i{fill:#455e6d;}.j{fill:#f8c298;}.k{fill:#ffd6c0;}.l{fill:#e39f6e;}</style><linearGradient id="a" x1="0.294" y1="0.191" x2="0.5" y2="1" gradientUnits="objectBoundingBox"><stop offset="0" stop-color="#ffb92d"/><stop offset="1" stop-color="#f59500"/></linearGradient></defs><path class="a" d="M321.406,324.008l3.094-3.094,3.408,3.408-3.094,3.094Zm0,0" transform="translate(-294.905 -294.412)"/><path class="b" d="M371.277,368.559l-2.218,2.218a1.369,1.369,0,0,1-1.936,0l-7.72-7.72a1.369,1.369,0,0,1,0-1.936l2.218-2.218a1.368,1.368,0,0,1,1.936,0l7.721,7.72A1.369,1.369,0,0,1,371.277,368.559Zm0,0" transform="translate(-329.396 -328.896)"/><path class="c" d="M377.986,358.9l7.72,7.72a1.369,1.369,0,0,1,0,1.936l-1.32,1.32a1.369,1.369,0,0,0,0-1.936l-7.72-7.72a1.369,1.369,0,0,0-1.936,0l1.32-1.32A1.368,1.368,0,0,1,377.986,358.9Zm0,0" transform="translate(-343.826 -328.896)"/><path class="d" d="M325.315,321.721a17.9,17.9,0,0,1-3.094,3.094L321.41,324l3.094-3.094Zm0,0" transform="translate(-294.909 -294.408)"/><path class="e" d="M33.576,16.538A16.538,16.538,0,1,1,17.038,0,16.538,16.538,0,0,1,33.576,16.538Zm0,0" transform="translate(-0.5)"/><path class="f" d="M42.359,56.047a14.265,14.265,0,1,1,10.087-4.178A14.172,14.172,0,0,1,42.359,56.047Zm0,0" transform="translate(-25.821 -25.243)"/><path class="g" d="M66.868,53.124A13.245,13.245,0,1,1,53.624,39.879,13.244,13.244,0,0,1,66.868,53.124Zm0,0" transform="translate(-37.086 -36.586)"/><path class="h" d="M118.7,94.847c0,.053,0,.106,0,.16a8.132,8.132,0,0,1-.167,1.552l0,.009-.4,1.925H103.093l-.4-1.935a8.067,8.067,0,0,1,7.916-9.7,8.1,8.1,0,0,1,7.9,6.362c.009.043.019.087.027.131a7.872,7.872,0,0,1,.156,1.5Zm0,0" transform="translate(-94.102 -79.683)"/><g transform="translate(9.391 10.905)"><path class="i" d="M114.863,193.086a.638.638,0,0,0-.11,1.267,6.925,6.925,0,0,0,1.206.088v-1.275A6.372,6.372,0,0,1,114.863,193.086Zm0,0" transform="translate(-114.219 -188.045)"/><path class="i" d="M265.77,187.9v1.282a9.071,9.071,0,0,0,2.518-.835l0-.009a8.147,8.147,0,0,0,.164-1.443A8.45,8.45,0,0,1,265.77,187.9Zm0,0" transform="translate(-253.255 -182.362)"/><path class="i" d="M265.525,134.812l-2.486-1.584a.638.638,0,0,1,.686-1.076l1.149.732a8.033,8.033,0,0,1,.623,1.8C265.507,134.725,265.516,134.768,265.525,134.812Zm0,0" transform="translate(-250.479 -132.052)"/></g><path class="j" d="M259.117,215.7a1.914,1.914,0,1,1-1.914-1.914A1.914,1.914,0,0,1,259.117,215.7Zm0,0" transform="translate(-234.248 -196.127)"/><path class="j" d="M103.035,215.7a1.914,1.914,0,1,1-1.914-1.914A1.914,1.914,0,0,1,103.035,215.7Zm0,0" transform="translate(-91.056 -196.127)"/><path class="k" d="M132.988,179.706a5.158,5.158,0,0,1-5.118-4.518l-.952-7.621h12.14l-.952,7.621A5.157,5.157,0,0,1,132.988,179.706Zm0,0" transform="translate(-116.478 -153.728)"/><path class="h" d="M117.676,150.8a6.256,6.256,0,0,0,5.027-1.017s5.375,3.811,10.6.119a.456.456,0,0,0-.015-.757l-3.249-2.07H117.676Zm0,0" transform="translate(-107.999 -134.929)"/><path class="i" d="M159.319,225.807a.638.638,0,0,1-.637-.621l-.008-.3a.638.638,0,1,1,1.276-.035l.008.3a.638.638,0,0,1-.62.655Zm0,0" transform="translate(-145.611 -205.71)"/><path class="i" d="M227.261,225.807a.638.638,0,0,1-.637-.621l-.008-.3a.638.638,0,1,1,1.276-.035l.008.3a.638.638,0,0,1-.62.655Zm0,0" transform="translate(-207.942 -205.71)"/><path class="l" d="M174.386,252.046a2.752,2.752,0,0,1-2.222-1.136.638.638,0,1,1,1.034-.748,1.466,1.466,0,0,0,2.377,0,.638.638,0,1,1,1.034.748A2.751,2.751,0,0,1,174.386,252.046Zm0,0" transform="translate(-157.876 -229.26)"/></svg>